<?xml version="1.0" standalone="no"?>
<!DOCTYPE svg PUBLIC "-//W3C//DTD SVG 20010904//EN"
 "http://www.w3.org/TR/2001/REC-SVG-20010904/DTD/svg10.dtd">
<svg version="1.0" xmlns="http://www.w3.org/2000/svg"
 width="512.000000pt" height="512.000000pt" viewBox="0 0 512.000000 512.000000"
 preserveAspectRatio="xMidYMid meet">
<metadata>
Created by potrace 1.11, written by Peter Selinger 2001-2013
</metadata>
<g transform="translate(0.000000,512.000000) scale(0.100000,-0.100000)"
fill="#000000" stroke="none">
<path d="M2382 5103 c-75 -26 -147 -114 -166 -204 -5 -22 -12 -27 -52 -33 -55
-7 -130 -42 -153 -72 -22 -28 -49 -40 -96 -43 -22 -1 -59 -13 -82 -27 -42 -24
-93 -86 -93 -111 0 -11 -50 -19 -83 -14 -13 2 -81 -36 -99 -56 -24 -26 -45
-92 -42 -129 3 -37 25 -83 50 -105 23 -20 84 -52 84 -44 0 3 8 1 18 -4 16 -8
17 -38 17 -408 l0 -398 -390 -2 c-229 -1 -411 -7 -440 -13 -74 -16 -137 -66
-174 -140 l-31 -62 0 -747 c0 -855 -5 -809 85 -896 85 -84 39 -79 800 -84
l150 -1 -1 -528 c-1 -562 0 -568 48 -620 12 -12 42 -29 67 -36 l46 -13 0 -147
c0 -119 3 -149 15 -156 24 -15 2223 -13 2238 2 8 8 12 58 12 160 0 142 1 148
20 148 39 0 95 37 118 78 l22 40 0 1921 0 1921 25 0 c14 0 42 9 63 19 121 62
149 216 57 314 -42 45 -90 60 -170 53 l-70 -5 -22 34 c-12 18 -44 46 -70 62
-42 24 -58 28 -120 26 -70 -1 -72 -1 -83 28 -18 43 -69 93 -119 119 -80 40
-192 25 -257 -35 -15 -14 -28 -25 -29 -25 -1 0 -17 14 -36 31 -89 82 -208 94
-303 30 -21 -14 -45 -30 -52 -36 -10 -7 -18 -4 -30 13 -28 41 -68 74 -114 95
-56 25 -152 28 -198 4 l-33 -16 -46 46 c-26 25 -63 53 -82 61 -48 21 -146 23
-199 5z m-862 -1963 l165 0 -1 -652 c-1 -359 -2 -655 -3 -658 -2 -7 -708 -6
-716 1 -5 5 -8 788 -5 1237 0 53 3 64 19 70 11 4 100 6 198 5 98 -1 252 -2
343 -3z"/>
</g>
</svg>
